<svg width="378" height="243" viewBox="0 0 378 243" fill="none" xmlns="http://www.w3.org/2000/svg">
<path d="M259.681 14.0273C259.512 28.0965 259.343 42.2944 259.175 56.6211V131.925H277.845C294.547 131.925 308.014 129.392 318.278 124.361C328.77 119.106 336.285 111.896 340.856 102.738L340.861 102.729L341.305 101.864C345.814 92.8775 348.075 82.5437 348.075 70.8506C348.075 51.7355 343.031 37.3176 333.021 27.5098L333.018 27.5059C323.013 17.4853 307.413 12.4248 286.107 12.4248H279.762L259.681 14.0273ZM47.4424 227.956L82.0283 231.571L82.4766 231.618V242.5H0.5V231.62L0.946289 231.571L33.5898 228.036L34.1758 14.2383L1.28809 11.4297L0.830078 11.3906V0.5H64.7959L64.9229 0.811523L146.594 201.999L221.84 13.585L194.845 11.4297L194.385 11.3926V0.5H292.687V0.543945C320.775 1.11522 341.747 7.40208 355.513 19.4912L356.195 20.0898C370.407 32.719 377.5 49.7686 377.5 71.1816C377.5 84.7321 374.06 97.0705 367.18 108.187L367.181 108.188C360.714 118.767 350.501 127.231 336.584 133.597L335.226 134.206C320.597 140.644 301.682 143.849 278.506 143.849H259.175V187.372L259.672 228.455L296.726 231.57L297.185 231.609V242.5H194.184V231.61L194.64 231.57L227.844 228.656C228.098 214.659 228.227 200.789 228.227 187.047V134.406L228.759 80.6826V56.6152C228.759 48.0187 228.71 39.4686 228.617 30.9648L144.579 242.185L144.453 242.5H132.871L132.744 242.188L45.959 29.4717L47.4414 113.877L47.4424 113.886V227.956Z" fill="white" stroke="black"/>
</svg>
